<svg width="363" height="66" viewBox="0 0 363 66" fill="none" xmlns="http://www.w3.org/2000/svg">
<mask id="mask0_3586_2" style="mask-type:luminance" maskUnits="userSpaceOnUse" x="318" y="13" width="30" height="30">
<path d="M318.014 13.333H347.347V42.6663H318.014V13.333Z" fill="white"/>
</mask>
<g mask="url(#mask0_3586_2)">
<mask id="mask1_3586_2" style="mask-type:luminance" maskUnits="userSpaceOnUse" x="313" y="0" width="48" height="49">
<path d="M313.087 18.7809L332.915 0.458008L360.066 29.8278L340.238 48.1559L313.087 18.7809Z" fill="white"/>
</mask>
<g mask="url(#mask1_3586_2)">
<mask id="mask2_3586_2" style="mask-type:luminance" maskUnits="userSpaceOnUse" x="313" y="0" width="48" height="49">
<path d="M313.087 18.7809L332.915 0.458008L360.066 29.8278L340.238 48.1559L313.087 18.7809Z" fill="white"/>
</mask>
<g mask="url(#mask2_3586_2)">
<path d="M346.696 15.5048L322.665 14.4371C318.024 14.2288 317.238 23.2705 322.738 23.4215L337.696 23.8278L336.55 38.8746C336.206 43.458 345.139 43.9371 345.394 39.2809L346.696 15.5048Z" fill="#00BF63"/>
</g>
</g>
</g>
<mask id="mask3_3586_2" style="mask-type:luminance" maskUnits="userSpaceOnUse" x="332" y="0" width="31" height="31">
<path d="M332.68 0H362.014V30.6667H332.68V0Z" fill="white"/>
</mask>
<g mask="url(#mask3_3586_2)">
<mask id="mask4_3586_2" style="mask-type:luminance" maskUnits="userSpaceOnUse" x="327" y="-13" width="48" height="49">
<path d="M327.316 5.63054L347.144 -12.6924L374.295 16.6826L354.467 35.0055L327.316 5.63054Z" fill="white"/>
</mask>
<g mask="url(#mask4_3586_2)">
<mask id="mask5_3586_2" style="mask-type:luminance" maskUnits="userSpaceOnUse" x="327" y="-13" width="48" height="49">
<path d="M327.316 5.63054L347.144 -12.6924L374.295 16.6826L354.467 35.0055L327.316 5.63054Z" fill="white"/>
</mask>
<g mask="url(#mask5_3586_2)">
<path d="M360.925 2.35445L336.894 1.28675C332.253 1.07841 331.467 10.1253 336.967 10.2711L351.92 10.6774L350.779 25.7242C350.43 30.3076 359.368 30.792 359.623 26.1357L360.925 2.35445Z" fill="#00BF63"/>
</g>
</g>
</g>
<path d="M14.1458 51.8532C15.1979 51.8532 16.2292 51.7178 17.2292 51.4365C18.2396 51.1449 19.1875 50.6553 20.0625 49.9574C20.8958 49.2074 21.7083 48.8636 22.5 48.9157C23.2917 48.973 23.9479 49.2646 24.4792 49.7907C25.0052 50.3063 25.2708 50.9522 25.2708 51.7282C25.2708 52.5094 24.8854 53.2594 24.125 53.9782C22.8594 55.2022 21.3594 56.0615 19.625 56.5615C17.8854 57.0459 16.1146 57.2699 14.3125 57.2282C11.4896 57.2282 9.00521 56.6553 6.85417 55.499C4.69792 54.3324 3.02083 52.723 1.8125 50.6657C0.604167 48.6136 0 46.2282 0 43.5199C0 40.5511 0.572916 37.9469 1.72917 35.7074C2.89583 33.473 4.53125 31.723 6.64583 30.4574C8.75521 29.1969 11.2552 28.5615 14.1458 28.5615C17.0312 28.5615 19.4896 29.1553 21.5208 30.3324C23.5469 31.499 25.0885 33.1396 26.1458 35.249C27.2135 37.3636 27.75 39.8271 27.75 42.6449C27.75 43.5511 27.5677 44.3219 27.2083 44.9574C26.8438 45.5824 25.8854 45.8949 24.3333 45.8949H6.29167C6.79167 47.6761 7.73958 49.1136 9.14583 50.2074C10.5625 51.3063 12.2292 51.8532 14.1458 51.8532ZM14.2083 33.9157C12.1094 33.9157 10.3542 34.5771 8.9375 35.8949C7.53125 37.2178 6.63021 38.9469 6.22917 41.0824H22C21.8177 38.9469 21.1146 37.2178 19.8958 35.8949C18.6719 34.5771 16.776 33.9157 14.2083 33.9157Z" fill="black"/>
<path d="M55.1789 51.54C55.8976 52.3317 56.231 53.1338 56.1789 53.9359C56.1216 54.7275 55.8247 55.389 55.283 55.915C54.7414 56.4307 54.0955 56.6859 53.3455 56.6859C52.5122 56.6859 51.6997 56.29 50.908 55.4984L43.1372 47.0817L35.4497 55.3942C34.6164 56.2588 33.7101 56.6859 32.7414 56.6859C32.0174 56.6859 31.3872 56.4463 30.8455 55.9567C30.3039 55.4723 30.0226 54.863 29.9914 54.1234C29.9497 53.3734 30.2882 52.6025 31.0122 51.8109L39.3455 42.8109L31.2205 34.0192C30.4966 33.2275 30.1476 32.4567 30.1789 31.7067C30.2205 30.9463 30.5174 30.3213 31.0747 29.8317C31.6424 29.3473 32.3091 29.1025 33.0747 29.1025C33.533 29.1025 34.0018 29.2171 34.4914 29.4359C34.9914 29.6442 35.4705 29.9984 35.9289 30.4984L43.2622 38.3734L50.6789 30.3942C51.106 29.9255 51.5591 29.5921 52.033 29.3942C52.5018 29.2015 52.9549 29.1025 53.3872 29.1025C54.1476 29.1025 54.8039 29.3421 55.3455 29.8109C55.8872 30.2692 56.1685 30.8734 56.1997 31.6234C56.2414 32.363 55.8872 33.1442 55.1372 33.9775L46.9914 42.7067L55.1789 51.54Z" fill="black"/>
<path d="M72.8458 28.5615C75.5229 28.5615 77.8667 29.1553 79.8667 30.3324C81.8771 31.499 83.4344 33.1396 84.5333 35.249C85.6271 37.3636 86.1792 39.8063 86.1792 42.5824C86.1792 45.4886 85.6271 48.0407 84.5333 50.249C83.4344 52.4469 81.9083 54.1605 79.95 55.3949C78.0021 56.6188 75.7104 57.2282 73.075 57.2282C71.8354 57.2282 70.4969 57.0094 69.0542 56.5824C67.6062 56.1553 66.2885 55.5355 65.0958 54.7282V63.0199C65.0958 63.9209 64.7729 64.6084 64.1375 65.0824C63.5125 65.5511 62.8146 65.7907 62.0542 65.7907C61.2625 65.7907 60.5437 65.5511 59.9083 65.0824C59.2833 64.6084 58.9708 63.9209 58.9708 63.0199V31.8532C58.9708 30.9938 59.2469 30.3219 59.8042 29.8324C60.3719 29.348 61.1427 29.1032 62.1167 29.1032C63.7417 29.1032 64.7 29.7386 64.9917 30.999C66.2521 30.098 67.575 29.4678 68.95 29.1032C70.325 28.7438 71.6219 28.5615 72.8458 28.5615ZM72.9083 51.749C75.0333 51.749 76.7469 50.9105 78.0542 49.2282C79.3562 47.5511 80.0125 45.3532 80.0125 42.6449C80.0125 40.0771 79.3094 37.999 77.9083 36.4157C76.5177 34.8219 74.6844 34.0199 72.4083 34.0199C70.9604 34.0199 69.5542 34.3949 68.1792 35.1449C66.8146 35.8844 65.7885 36.9365 65.0958 38.3115V47.3115C65.6792 48.7178 66.7052 49.8063 68.1792 50.5824C69.6635 51.3636 71.2417 51.749 72.9083 51.749Z" fill="black"/>
<path d="M103.308 51.8532C104.36 51.8532 105.391 51.7178 106.391 51.4365C107.402 51.1449 108.35 50.6553 109.225 49.9574C110.058 49.2074 110.871 48.8636 111.662 48.9157C112.454 48.973 113.11 49.2646 113.641 49.7907C114.167 50.3063 114.433 50.9522 114.433 51.7282C114.433 52.5094 114.048 53.2594 113.287 53.9782C112.022 55.2022 110.522 56.0615 108.787 56.5615C107.048 57.0459 105.277 57.2699 103.475 57.2282C100.652 57.2282 98.1675 56.6553 96.0164 55.499C93.8602 54.3324 92.1831 52.723 90.9748 50.6657C89.7664 48.6136 89.1623 46.2282 89.1623 43.5199C89.1623 40.5511 89.7352 37.9469 90.8914 35.7074C92.0581 33.473 93.6935 31.723 95.8081 30.4574C97.9175 29.1969 100.417 28.5615 103.308 28.5615C106.194 28.5615 108.652 29.1553 110.683 30.3324C112.709 31.499 114.251 33.1396 115.308 35.249C116.376 37.3636 116.912 39.8271 116.912 42.6449C116.912 43.5511 116.73 44.3219 116.371 44.9574C116.006 45.5824 115.048 45.8949 113.496 45.8949H95.4539C95.9539 47.6761 96.9018 49.1136 98.3081 50.2074C99.7248 51.3063 101.391 51.8532 103.308 51.8532ZM103.371 33.9157C101.272 33.9157 99.5164 34.5771 98.0998 35.8949C96.6935 37.2178 95.7925 38.9469 95.3914 41.0824H111.162C110.98 38.9469 110.277 37.2178 109.058 35.8949C107.834 34.5771 105.938 33.9157 103.371 33.9157Z" fill="black"/>
<path d="M137.57 28.5615C140.096 28.5615 142.242 29.1136 144.008 30.2074C145.784 31.3063 147.138 32.8324 148.07 34.7907C149.013 36.7386 149.487 39.0146 149.487 41.624V53.874C149.487 54.7074 149.216 55.3897 148.674 55.9157C148.133 56.4313 147.372 56.6865 146.404 56.6865C145.497 56.6865 144.758 56.4313 144.174 55.9157C143.602 55.3897 143.32 54.7074 143.32 53.874V41.499C143.32 39.2646 142.784 37.4521 141.716 36.0615C140.643 34.6761 138.956 33.9782 136.654 33.9782C135.956 33.9782 135.133 34.1657 134.174 34.5407C133.216 34.9157 132.279 35.4886 131.362 36.249C130.445 37.0146 129.685 37.973 129.091 39.124C128.492 40.2803 128.195 41.6553 128.195 43.249V53.9157C128.195 55.7647 127.201 56.6865 125.216 56.6865C124.268 56.6865 123.497 56.4469 122.904 55.9574C122.305 55.473 122.008 54.7907 122.008 53.9157V31.8532C122.008 30.9521 122.32 30.2699 122.945 29.8115C123.581 29.3428 124.299 29.1032 125.091 29.1032C125.852 29.1032 126.56 29.3428 127.216 29.8115C127.867 30.2699 128.195 30.9157 128.195 31.749V32.124C129.747 30.6813 131.352 29.7282 133.008 29.2699C134.674 28.8011 136.195 28.5615 137.57 28.5615Z" fill="black"/>
<path d="M152.908 50.2282C152.658 49.2282 152.893 48.4261 153.617 47.8115C154.336 47.1865 155.127 46.874 155.992 46.874C156.643 46.874 157.221 47.0719 157.721 47.4574C158.231 47.8324 158.617 48.3949 158.867 49.1449C159.086 49.8011 159.56 50.3324 160.283 50.749C161.002 51.1657 161.846 51.4678 162.804 51.6449C163.763 51.8272 164.726 51.9157 165.7 51.9157C167.643 51.9157 169.211 51.5719 170.408 50.874C171.601 50.1657 172.2 49.2646 172.2 48.1657C172.2 47.4157 171.877 46.8636 171.242 46.499C170.617 46.1396 169.789 45.8896 168.763 45.749C167.731 45.598 166.638 45.4886 165.471 45.4157C163.955 45.2646 162.461 45.0824 160.992 44.874C159.533 44.6553 158.205 44.2855 157.013 43.7699C155.83 43.2438 154.877 42.4678 154.158 41.4365C153.435 40.3949 153.075 38.9938 153.075 37.2282C153.075 35.4938 153.575 33.9782 154.575 32.6865C155.586 31.3844 157.018 30.3688 158.867 29.6449C160.711 28.9261 162.846 28.5615 165.263 28.5615C166.679 28.5615 168.2 28.7021 169.825 28.9782C171.45 29.2438 172.955 29.7907 174.346 30.624C175.731 31.4469 176.752 32.723 177.408 34.4574C177.658 35.1813 177.638 35.8271 177.346 36.3949C177.065 36.9521 176.643 37.374 176.075 37.6657C175.518 37.9574 174.95 38.1032 174.367 38.1032C173.711 38.1032 173.179 37.9782 172.763 37.7282C172.356 37.4678 172.013 37.0303 171.721 36.4157C171.388 35.6553 170.83 35.0928 170.054 34.7282C169.273 34.3688 168.44 34.1449 167.554 34.0615C166.679 33.9678 165.914 33.9157 165.263 33.9157C163.455 33.9157 161.997 34.2282 160.888 34.8532C159.789 35.4678 159.242 36.2699 159.242 37.2699C159.242 38.1449 159.533 38.7386 160.117 39.0407C160.7 39.348 161.481 39.5303 162.471 39.5824C163.471 39.6396 164.58 39.7386 165.804 39.874C167.315 40.0563 168.815 40.2594 170.304 40.4782C171.789 40.7021 173.143 41.0771 174.367 41.6032C175.601 42.1188 176.58 42.8896 177.304 43.9157C178.023 44.9469 178.388 46.3636 178.388 48.1657C178.388 49.9469 177.851 51.5199 176.783 52.8949C175.711 54.2699 174.226 55.3428 172.325 56.1032C170.435 56.8532 168.226 57.2282 165.7 57.2282C164.575 57.2282 163.351 57.1449 162.033 56.9782C160.711 56.8219 159.429 56.5094 158.179 56.0199C156.94 55.5199 155.851 54.8115 154.908 53.8949C153.961 52.9782 153.294 51.7594 152.908 50.2282Z" fill="black"/>
<path d="M194.638 51.8532C195.691 51.8532 196.722 51.7178 197.722 51.4365C198.732 51.1449 199.68 50.6553 200.555 49.9574C201.388 49.2074 202.201 48.8636 202.993 48.9157C203.784 48.973 204.441 49.2646 204.972 49.7907C205.498 50.3063 205.763 50.9522 205.763 51.7282C205.763 52.5094 205.378 53.2594 204.618 53.9782C203.352 55.2022 201.852 56.0615 200.118 56.5615C198.378 57.0459 196.607 57.2699 194.805 57.2282C191.982 57.2282 189.498 56.6553 187.347 55.499C185.191 54.3324 183.513 52.723 182.305 50.6657C181.097 48.6136 180.493 46.2282 180.493 43.5199C180.493 40.5511 181.066 37.9469 182.222 35.7074C183.388 33.473 185.024 31.723 187.138 30.4574C189.248 29.1969 191.748 28.5615 194.638 28.5615C197.524 28.5615 199.982 29.1553 202.013 30.3324C204.04 31.499 205.581 33.1396 206.638 35.249C207.706 37.3636 208.243 39.8271 208.243 42.6449C208.243 43.5511 208.06 44.3219 207.701 44.9574C207.336 45.5824 206.378 45.8949 204.826 45.8949H186.784C187.284 47.6761 188.232 49.1136 189.638 50.2074C191.055 51.3063 192.722 51.8532 194.638 51.8532ZM194.701 33.9157C192.602 33.9157 190.847 34.5771 189.43 35.8949C188.024 37.2178 187.123 38.9469 186.722 41.0824H202.493C202.31 38.9469 201.607 37.2178 200.388 35.8949C199.165 34.5771 197.269 33.9157 194.701 33.9157Z" fill="black"/>
<path d="M214.484 43.2904C213.401 43.2904 212.599 43.0091 212.088 42.4362C211.588 41.8529 211.338 41.2383 211.338 40.582C211.338 39.8633 211.609 39.2227 212.151 38.6654C212.692 38.1133 213.468 37.832 214.484 37.832H224.776C225.828 37.832 226.63 38.1133 227.172 38.6654C227.713 39.2227 227.984 39.8633 227.984 40.582C227.984 41.2799 227.718 41.9049 227.192 42.457C226.661 43.0143 225.859 43.2904 224.776 43.2904H214.484Z" fill="black"/>
<path d="M240.812 26.1025C240.171 26.1025 239.583 26.3265 239.041 26.7692C238.5 27.2015 238.229 27.8682 238.229 28.7692V29.6859H241.791C242.692 29.6859 243.354 29.9567 243.77 30.4984C244.187 31.04 244.395 31.6182 244.395 32.2275C244.395 32.8838 244.187 33.4723 243.77 33.9984C243.354 34.5296 242.692 34.79 241.791 34.79H238.229V53.9775C238.229 54.8838 237.901 55.5609 237.25 56.0192C236.593 56.4671 235.885 56.6859 235.125 56.6859C234.333 56.6859 233.614 56.4671 232.979 56.0192C232.354 55.5609 232.041 54.8838 232.041 53.9775V34.79H230.625C229.718 34.79 229.031 34.5296 228.562 33.9984C228.104 33.4723 227.875 32.8838 227.875 32.2275C227.875 31.6182 228.104 31.04 228.562 30.4984C229.031 29.9567 229.718 29.6859 230.625 29.6859H232.041V28.7692C232.041 27.0765 232.442 25.6442 233.25 24.4775C234.067 23.3005 235.135 22.4046 236.458 21.79C237.776 21.165 239.156 20.8525 240.604 20.8525C241.656 20.8525 242.687 20.9984 243.687 21.29C244.697 21.5817 245.625 22.0921 246.458 22.8109C247.151 23.4255 247.484 24.0921 247.458 24.8109C247.442 25.5348 247.192 26.165 246.708 26.7067C246.218 27.2484 245.614 27.5765 244.895 27.6859C244.171 27.8005 243.447 27.5296 242.729 26.8734C242.213 26.363 241.572 26.1025 240.812 26.1025Z" fill="black"/>
<path d="M253.348 53.9782C253.348 54.7021 253.046 55.3324 252.452 55.874C251.853 56.4157 251.119 56.6865 250.244 56.6865C249.337 56.6865 248.598 56.4157 248.014 55.874C247.442 55.3324 247.16 54.7021 247.16 53.9782V24.3324C247.16 23.6136 247.442 22.9782 248.014 22.4365C248.598 21.8949 249.337 21.624 250.244 21.624C251.119 21.624 251.853 21.8949 252.452 22.4365C253.046 22.9782 253.348 23.6136 253.348 24.3324V53.9782Z" fill="black"/>
<path d="M269.653 28.5615C272.539 28.5615 275.07 29.1657 277.237 30.374C279.414 31.5824 281.096 33.2699 282.278 35.4365C283.471 37.6032 284.07 40.1344 284.07 43.0199C284.039 45.8428 283.414 48.3219 282.195 50.4574C280.987 52.5824 279.304 54.2438 277.153 55.4365C275.013 56.6344 272.513 57.2282 269.653 57.2282C266.83 57.2282 264.341 56.6344 262.174 55.4365C260.007 54.2438 258.32 52.5824 257.112 50.4574C255.903 48.3219 255.278 45.8428 255.237 43.0199C255.237 40.1344 255.841 37.6032 257.049 35.4365C258.257 33.2699 259.945 31.5824 262.112 30.374C264.289 29.1657 266.804 28.5615 269.653 28.5615ZM269.653 51.8115C272.112 51.8115 274.07 50.999 275.528 49.374C276.997 47.749 277.737 45.6344 277.737 43.0199C277.737 40.3532 276.997 38.1813 275.528 36.499C274.07 34.8219 272.112 33.9782 269.653 33.9782C267.237 33.9782 265.283 34.8219 263.799 36.499C262.309 38.1813 261.57 40.3532 261.57 43.0199C261.57 45.6344 262.309 47.749 263.799 49.374C265.283 50.999 267.237 51.8115 269.653 51.8115Z" fill="black"/>
<path d="M285.485 33.165C285.152 32.4046 285.116 31.7171 285.381 31.1025C285.657 30.4932 286.089 30.0088 286.673 29.6442C287.256 29.2848 287.85 29.1025 288.464 29.1025C289.074 29.1025 289.652 29.29 290.194 29.665C290.735 30.04 291.095 30.4671 291.277 30.9359L298.339 47.04L305.11 33.1025C305.36 32.4932 305.735 32.0348 306.235 31.7275C306.746 31.4255 307.308 31.2692 307.923 31.2692C309.256 31.2692 310.214 31.8682 310.798 33.0609L317.631 47.1442L324.61 31.04C325.194 29.7484 326.173 29.1025 327.548 29.1025C328.491 29.1025 329.298 29.4932 329.964 30.2692C330.631 31.0348 330.725 31.9775 330.256 33.1025L320.673 55.665C320.267 56.7067 319.345 57.2275 317.902 57.2275C317.287 57.2275 316.72 57.1077 316.194 56.8734C315.662 56.639 315.256 56.2484 314.964 55.7067L308.027 41.0192L300.923 55.665C300.423 56.7067 299.449 57.2275 298.006 57.2275C297.392 57.2275 296.85 57.1077 296.381 56.8734C295.907 56.639 295.527 56.2171 295.235 55.6025L285.485 33.165Z" fill="black"/>
</svg>
